<?xml version="1.0" encoding="utf-8"?>
<svg version="1.1" xmlns:xlink="http://www.w3.org/1999/xlink" width="20px" height="20px" xmlns="http://www.w3.org/2000/svg">
  <defs>
    <mask fill="white" id="clip618">
      <path d="M 8.88888888888889 1.53846153846154  L 8.88888888888889 10.6971153846154  L 15.2083333333333 17.2596153846154  C 14.3904320987654 18.125  13.4355709876543 18.7980769230769  12.34375 19.2788461538462  C 11.2519290123457 19.7596153846154  10.1003086419753 20  8.88888888888889 20  C 7.27623456790124 20  5.78896604938272 19.5873397435897  4.42708333333333 18.7620192307692  C 3.06520061728395 17.9366987179487  1.98688271604938 16.8169070512821  1.19212962962963 15.4026442307692  C 0.397376543209876 13.9883814102564  0 12.4439102564103  0 10.7692307692308  C 0 9.09455128205128  0.397376543209876 7.55008012820513  1.19212962962963 6.13581730769231  C 1.98688271604938 4.72155448717949  3.06520061728395 3.60176282051282  4.42708333333333 2.77644230769231  C 5.78896604938272 1.95112179487179  7.27623456790124 1.53846153846154  8.88888888888889 1.53846153846154  Z M 17.3611111111111 17.3317307692308  L 11.0532407407407 10.7692307692308  L 20 10.7692307692308  C 20 12.0272435897436  19.7685185185185 13.223157051282  19.3055555555556 14.3569711538462  C 18.8425925925926 15.4907852564103  18.1944444444444 16.4823717948718  17.3611111111111 17.3317307692308  Z M 18.0671296296296 4.59735576923077  C 18.8618827160494 6.01161858974359  19.2592592592593 7.55608974358974  19.2592592592593 9.23076923076923  L 10.3703703703704 9.23076923076923  L 10.3703703703704 0  C 11.983024691358 0  13.4702932098765 0.412660256410258  14.8321759259259 1.23798076923077  C 16.1940586419753 2.06330128205128  17.2723765432099 3.18309294871795  18.0671296296296 4.59735576923077  Z " fill-rule="evenodd" />
    </mask>
  </defs>
  <g transform="matrix(1 0 0 1 -80 -5 )">
    <path d="M 8.88888888888889 1.53846153846154  L 8.88888888888889 10.6971153846154  L 15.2083333333333 17.2596153846154  C 14.3904320987654 18.125  13.4355709876543 18.7980769230769  12.34375 19.2788461538462  C 11.2519290123457 19.7596153846154  10.1003086419753 20  8.88888888888889 20  C 7.27623456790124 20  5.78896604938272 19.5873397435897  4.42708333333333 18.7620192307692  C 3.06520061728395 17.9366987179487  1.98688271604938 16.8169070512821  1.19212962962963 15.4026442307692  C 0.397376543209876 13.9883814102564  0 12.4439102564103  0 10.7692307692308  C 0 9.09455128205128  0.397376543209876 7.55008012820513  1.19212962962963 6.13581730769231  C 1.98688271604938 4.72155448717949  3.06520061728395 3.60176282051282  4.42708333333333 2.77644230769231  C 5.78896604938272 1.95112179487179  7.27623456790124 1.53846153846154  8.88888888888889 1.53846153846154  Z M 17.3611111111111 17.3317307692308  L 11.0532407407407 10.7692307692308  L 20 10.7692307692308  C 20 12.0272435897436  19.7685185185185 13.223157051282  19.3055555555556 14.3569711538462  C 18.8425925925926 15.4907852564103  18.1944444444444 16.4823717948718  17.3611111111111 17.3317307692308  Z M 18.0671296296296 4.59735576923077  C 18.8618827160494 6.01161858974359  19.2592592592593 7.55608974358974  19.2592592592593 9.23076923076923  L 10.3703703703704 9.23076923076923  L 10.3703703703704 0  C 11.983024691358 0  13.4702932098765 0.412660256410258  14.8321759259259 1.23798076923077  C 16.1940586419753 2.06330128205128  17.2723765432099 3.18309294871795  18.0671296296296 4.59735576923077  Z " fill-rule="nonzero" fill="#ffffff" stroke="none" fill-opacity="0" transform="matrix(1 0 0 1 80 5 )" />
    <path d="M 8.88888888888889 1.53846153846154  L 8.88888888888889 10.6971153846154  L 15.2083333333333 17.2596153846154  C 14.3904320987654 18.125  13.4355709876543 18.7980769230769  12.34375 19.2788461538462  C 11.2519290123457 19.7596153846154  10.1003086419753 20  8.88888888888889 20  C 7.27623456790124 20  5.78896604938272 19.5873397435897  4.42708333333333 18.7620192307692  C 3.06520061728395 17.9366987179487  1.98688271604938 16.8169070512821  1.19212962962963 15.4026442307692  C 0.397376543209876 13.9883814102564  0 12.4439102564103  0 10.7692307692308  C 0 9.09455128205128  0.397376543209876 7.55008012820513  1.19212962962963 6.13581730769231  C 1.98688271604938 4.72155448717949  3.06520061728395 3.60176282051282  4.42708333333333 2.77644230769231  C 5.78896604938272 1.95112179487179  7.27623456790124 1.53846153846154  8.88888888888889 1.53846153846154  Z " stroke-width="2" stroke="#555555" fill="none" transform="matrix(1 0 0 1 80 5 )" mask="url(#clip618)" />
    <path d="M 17.3611111111111 17.3317307692308  L 11.0532407407407 10.7692307692308  L 20 10.7692307692308  C 20 12.0272435897436  19.7685185185185 13.223157051282  19.3055555555556 14.3569711538462  C 18.8425925925926 15.4907852564103  18.1944444444444 16.4823717948718  17.3611111111111 17.3317307692308  Z " stroke-width="2" stroke="#555555" fill="none" transform="matrix(1 0 0 1 80 5 )" mask="url(#clip618)" />
    <path d="M 18.0671296296296 4.59735576923077  C 18.8618827160494 6.01161858974359  19.2592592592593 7.55608974358974  19.2592592592593 9.23076923076923  L 10.3703703703704 9.23076923076923  L 10.3703703703704 0  C 11.983024691358 0  13.4702932098765 0.412660256410258  14.8321759259259 1.23798076923077  C 16.1940586419753 2.06330128205128  17.2723765432099 3.18309294871795  18.0671296296296 4.59735576923077  Z " stroke-width="2" stroke="#555555" fill="none" transform="matrix(1 0 0 1 80 5 )" mask="url(#clip618)" />
  </g>
</svg>