<?xml version="1.0" encoding="utf-8"?>
<svg version="1.1" xmlns:xlink="http://www.w3.org/1999/xlink" width="20px" height="20px" xmlns="http://www.w3.org/2000/svg">
  <g transform="matrix(1 0 0 1 -345 -10 )">
    <path d="M 19.39375 10.028125  C 19.39375 4.87421875  15.20078125 0.67890625  10.046875 0.67890625  C 4.89296875 0.67890625  0.697656250000001 4.871875  0.697656250000001 10.02578125  C 0.7 15.18203125  4.89296875 19.375  10.046875 19.375  C 15.20078125 19.375  19.39375 15.18203125  19.39375 10.028125  Z M 15.165625 12.12109375  C 15.165625 12.128125  15.16328125 12.13515625  15.16328125 12.13984375  L 15.16328125 12.1796875  C 15.16328125 12.19140625  15.1609375 12.203125  15.1609375 12.2171875  C 15.1609375 12.22421875  15.1609375 12.23125  15.15859375 12.23828125  C 15.15859375 12.25  15.15625 12.26171875  15.15390625 12.2734375  C 15.15390625 12.28046875  15.1515625 12.28984375  15.1515625 12.296875  C 15.14921875 12.30625  15.14921875 12.315625  15.146875 12.325  C 15.14453125 12.334375  15.1421875 12.34609375  15.1421875 12.35546875  C 15.13984375 12.3625  15.13984375 12.36953125  15.1375 12.37421875  C 15.13515625 12.38828125  15.13046875 12.40234375  15.128125 12.41640625  C 15.128125 12.41875  15.12578125 12.42109375  15.12578125 12.4234375  C 15.07421875 12.62265625  14.97109375 12.8125  14.8140625 12.96953125  L 12.07890625 15.7046875  C 11.61015625 16.1734375  10.84375 16.1734375  10.37734375 15.7046875  C 9.90859375 15.2359375  9.90859375 14.46953125  10.37734375 14.003125  L 11.0546875 13.32578125  L 6.1328125 13.32578125  C 5.46953125 13.32578125  4.928125 12.784375  4.928125 12.12109375  C 4.928125 11.4578125  5.46953125 10.91640625  6.1328125 10.91640625  L 13.9609375 10.91640625  C 14.2703125 10.91640625  14.5796875 11.03359375  14.8140625 11.26796875  C 15.0484375 11.50234375  15.165625 11.81171875  15.165625 12.12109375  Z M 13.9609375 6.73046875  C 14.621875 6.73046875  15.165625 7.271875  15.165625 7.9328125  C 15.165625 8.59609375  14.62421875 9.1375  13.9609375 9.1375  L 6.1328125 9.1375  C 5.8234375 9.1375  5.5140625 9.0203125  5.2796875 8.7859375  C 5.0453125 8.5515625  4.928125 8.2421875  4.928125 7.9328125  L 4.928125 7.9140625  L 4.928125 7.8765625  C 4.928125 7.86484375  4.93046875 7.85078125  4.93046875 7.8390625  C 4.93046875 7.83203125  4.93046875 7.825  4.9328125 7.81796875  C 4.9328125 7.80625  4.93515625 7.79453125  4.9375 7.7828125  C 4.9375 7.77578125  4.93984375 7.76640625  4.93984375 7.759375  C 4.9421875 7.75  4.9421875 7.740625  4.94453125 7.73125  C 4.946875 7.721875  4.94921875 7.71015625  4.94921875 7.70078125  C 4.9515625 7.69375  4.9515625 7.68671875  4.95390625 7.68203125  C 4.95625 7.66796875  4.9609375 7.65390625  4.96328125 7.63984375  C 4.96328125 7.6375  4.965625 7.63515625  4.965625 7.6328125  C 5.0171875 7.43359375  5.1203125 7.24375  5.27734375 7.08671875  L 8.01015625 4.35390625  C 8.47890625 3.88515625  9.2453125 3.88515625  9.71171875 4.35390625  C 10.18046875 4.82265625  10.18046875 5.5890625  9.71171875 6.05546875  L 9.0390625 6.73046875  L 13.9609375 6.73046875  Z " fill-rule="nonzero" fill="#ffffff" stroke="none" transform="matrix(1 0 0 1 345 10 )" />
  </g>
</svg>