<?xml version="1.0" encoding="utf-8"?>
<svg version="1.1" xmlns:xlink="http://www.w3.org/1999/xlink" width="36px" height="20px" xmlns="http://www.w3.org/2000/svg">
  <g>
    <path d="M 0.896484375 13.8828125  C 0.298828125 12.6484375  0 11.3541666666667  0 10  C 0 8.64583333333333  0.298828125 7.3515625  0.896484375 6.1171875  C 1.494140625 4.8828125  2.2939453125 3.8203125  3.2958984375 2.9296875  C 4.2978515625 2.0390625  5.4931640625 1.328125  6.8818359375 0.796875  C 8.2705078125 0.265625  9.72656250000002 0  11.25 0  L 24.75 0  C 26.2734375 0  27.7294921875 0.265625  29.1181640625 0.796875  C 30.5068359375 1.328125  31.7021484375 2.0390625  32.7041015625 2.9296875  C 33.7060546875 3.8203125  34.505859375 4.8828125  35.103515625 6.1171875  C 35.701171875 7.3515625  36 8.64583333333333  36 10  C 36 11.3541666666667  35.701171875 12.6484375  35.103515625 13.8828125  C 34.505859375 15.1171875  33.7060546875 16.1796875  32.7041015625 17.0703125  C 31.7021484375 17.9609375  30.5068359375 18.671875  29.1181640625 19.203125  C 27.7294921875 19.734375  26.2734375 20  24.75 20  L 11.25 20  C 9.72656250000002 20  8.2705078125 19.734375  6.8818359375 19.203125  C 5.4931640625 18.671875  4.2978515625 17.9609375  3.2958984375 17.0703125  C 2.2939453125 16.1796875  1.494140625 15.1171875  0.896484375 13.8828125  Z M 21.2607421875 17.3671875  C 22.3681640625 17.7890625  23.53125 18  24.75 18  C 25.96875 18  27.1318359375 17.7890625  28.2392578125 17.3671875  C 29.3466796875 16.9453125  30.3046875 16.375  31.11328125 15.65625  C 31.921875 14.9375  32.5634765625 14.0859375  33.0380859375 13.1015625  C 33.5126953125 12.1171875  33.75 11.0833333333333  33.75 10  C 33.75 8.91666666666667  33.5126953125 7.8828125  33.0380859375 6.8984375  C 32.5634765625 5.9140625  31.921875 5.0625  31.11328125 4.34375  C 30.3046875 3.625  29.3466796875 3.0546875  28.2392578125 2.6328125  C 27.1318359375 2.2109375  25.96875 2  24.75 2  C 23.53125 2  22.3681640625 2.2109375  21.2607421875 2.6328125  C 20.1533203125 3.0546875  19.1953125 3.625  18.38671875 4.34375  C 17.578125 5.0625  16.9365234375 5.9140625  16.4619140625 6.8984375  C 15.9873046875 7.8828125  15.75 8.91666666666667  15.75 10  C 15.75 11.0833333333333  15.9873046875 12.1171875  16.4619140625 13.1015625  C 16.9365234375 14.0859375  17.578125 14.9375  18.38671875 15.65625  C 19.1953125 16.375  20.1533203125 16.9453125  21.2607421875 17.3671875  Z " fill-rule="nonzero" fill="#5393ee" stroke="none" />
  </g>
</svg>