<?xml version="1.0" encoding="utf-8"?>
<svg version="1.1" xmlns:xlink="http://www.w3.org/1999/xlink" width="36px" height="20px" xmlns="http://www.w3.org/2000/svg">
  <defs>
    <mask fill="white" id="clip30">
      <path d="M 19.5380859375 13.1015625  C 20.0126953125 12.1171875  20.25 11.0833333333333  20.25 10  C 20.25 8.91666666666667  20.0126953125 7.8828125  19.5380859375 6.8984375  C 19.0634765625 5.9140625  18.421875 5.0625  17.61328125 4.34375  C 16.8046875 3.625  15.8466796875 3.0546875  14.7392578125 2.6328125  C 13.6318359375 2.2109375  12.46875 2  11.25 2  C 10.03125 2  8.8681640625 2.2109375  7.7607421875 2.6328125  C 6.6533203125 3.0546875  5.6953125 3.625  4.88671875 4.34375  C 4.078125 5.0625  3.4365234375 5.9140625  2.9619140625 6.8984375  C 2.4873046875 7.8828125  2.25 8.91666666666667  2.25 10  C 2.25 11.0833333333333  2.4873046875 12.1171875  2.9619140625 13.1015625  C 3.4365234375 14.0859375  4.078125 14.9375  4.88671875 15.65625  C 5.6953125 16.375  6.6533203125 16.9453125  7.7607421875 17.3671875  C 8.8681640625 17.7890625  10.03125 18  11.25 18  C 12.46875 18  13.6318359375 17.7890625  14.7392578125 17.3671875  C 15.8466796875 16.9453125  16.8046875 16.375  17.61328125 15.65625  C 18.421875 14.9375  19.0634765625 14.0859375  19.5380859375 13.1015625  Z M 33.0380859375 13.1015625  C 33.5126953125 12.1171875  33.75 11.0833333333333  33.75 10  C 33.75 8.91666666666667  33.5126953125 7.8828125  33.0380859375 6.8984375  C 32.5634765625 5.9140625  31.921875 5.0625  31.11328125 4.34375  C 30.3046875 3.625  29.3466796875 3.0546875  28.2392578125 2.6328125  C 27.1318359375 2.2109375  25.96875 2  24.75 2  L 17.96484375 2  C 19.359375 2.9375  20.4638671875 4.10416666666667  21.2783203125 5.5  C 22.0927734375 6.89583333333333  22.5 8.39583333333333  22.5 10  C 22.5 11.6041666666667  22.0927734375 13.1041666666667  21.2783203125 14.5  C 20.4638671875 15.8958333333333  19.359375 17.0625  17.96484375 18  L 24.75 18  C 25.96875 18  27.1318359375 17.7890625  28.2392578125 17.3671875  C 29.3466796875 16.9453125  30.3046875 16.375  31.11328125 15.65625  C 31.921875 14.9375  32.5634765625 14.0859375  33.0380859375 13.1015625  Z M 35.103515625 6.1171875  C 35.701171875 7.3515625  36 8.64583333333333  36 10  C 36 11.3541666666667  35.701171875 12.6484375  35.103515625 13.8828125  C 34.505859375 15.1171875  33.7060546875 16.1796875  32.7041015625 17.0703125  C 31.7021484375 17.9609375  30.5068359375 18.671875  29.1181640625 19.203125  C 27.7294921875 19.734375  26.2734375 20  24.75 20  L 11.25 20  C 9.72656249999999 20  8.2705078125 19.734375  6.8818359375 19.203125  C 5.4931640625 18.671875  4.2978515625 17.9609375  3.2958984375 17.0703125  C 2.2939453125 16.1796875  1.494140625 15.1171875  0.896484375 13.8828125  C 0.298828125 12.6484375  0 11.3541666666667  0 10  C 0 8.64583333333333  0.298828125 7.3515625  0.896484375 6.1171875  C 1.494140625 4.8828125  2.2939453125 3.8203125  3.2958984375 2.9296875  C 4.2978515625 2.0390625  5.4931640625 1.328125  6.8818359375 0.796875  C 8.2705078125 0.265625  9.72656249999999 0  11.25 0  L 24.75 0  C 26.2734375 0  27.7294921875 0.265625  29.1181640625 0.796875  C 30.5068359375 1.328125  31.7021484375 2.0390625  32.7041015625 2.9296875  C 33.7060546875 3.8203125  34.505859375 4.8828125  35.103515625 6.1171875  Z " fill-rule="evenodd" />
    </mask>
  </defs>
  <g>
    <path d="M 19.5380859375 13.1015625  C 20.0126953125 12.1171875  20.25 11.0833333333333  20.25 10  C 20.25 8.91666666666667  20.0126953125 7.8828125  19.5380859375 6.8984375  C 19.0634765625 5.9140625  18.421875 5.0625  17.61328125 4.34375  C 16.8046875 3.625  15.8466796875 3.0546875  14.7392578125 2.6328125  C 13.6318359375 2.2109375  12.46875 2  11.25 2  C 10.03125 2  8.8681640625 2.2109375  7.7607421875 2.6328125  C 6.6533203125 3.0546875  5.6953125 3.625  4.88671875 4.34375  C 4.078125 5.0625  3.4365234375 5.9140625  2.9619140625 6.8984375  C 2.4873046875 7.8828125  2.25 8.91666666666667  2.25 10  C 2.25 11.0833333333333  2.4873046875 12.1171875  2.9619140625 13.1015625  C 3.4365234375 14.0859375  4.078125 14.9375  4.88671875 15.65625  C 5.6953125 16.375  6.6533203125 16.9453125  7.7607421875 17.3671875  C 8.8681640625 17.7890625  10.03125 18  11.25 18  C 12.46875 18  13.6318359375 17.7890625  14.7392578125 17.3671875  C 15.8466796875 16.9453125  16.8046875 16.375  17.61328125 15.65625  C 18.421875 14.9375  19.0634765625 14.0859375  19.5380859375 13.1015625  Z M 33.0380859375 13.1015625  C 33.5126953125 12.1171875  33.75 11.0833333333333  33.75 10  C 33.75 8.91666666666667  33.5126953125 7.8828125  33.0380859375 6.8984375  C 32.5634765625 5.9140625  31.921875 5.0625  31.11328125 4.34375  C 30.3046875 3.625  29.3466796875 3.0546875  28.2392578125 2.6328125  C 27.1318359375 2.2109375  25.96875 2  24.75 2  L 17.96484375 2  C 19.359375 2.9375  20.4638671875 4.10416666666667  21.2783203125 5.5  C 22.0927734375 6.89583333333333  22.5 8.39583333333333  22.5 10  C 22.5 11.6041666666667  22.0927734375 13.1041666666667  21.2783203125 14.5  C 20.4638671875 15.8958333333333  19.359375 17.0625  17.96484375 18  L 24.75 18  C 25.96875 18  27.1318359375 17.7890625  28.2392578125 17.3671875  C 29.3466796875 16.9453125  30.3046875 16.375  31.11328125 15.65625  C 31.921875 14.9375  32.5634765625 14.0859375  33.0380859375 13.1015625  Z M 35.103515625 6.1171875  C 35.701171875 7.3515625  36 8.64583333333333  36 10  C 36 11.3541666666667  35.701171875 12.6484375  35.103515625 13.8828125  C 34.505859375 15.1171875  33.7060546875 16.1796875  32.7041015625 17.0703125  C 31.7021484375 17.9609375  30.5068359375 18.671875  29.1181640625 19.203125  C 27.7294921875 19.734375  26.2734375 20  24.75 20  L 11.25 20  C 9.72656249999999 20  8.2705078125 19.734375  6.8818359375 19.203125  C 5.4931640625 18.671875  4.2978515625 17.9609375  3.2958984375 17.0703125  C 2.2939453125 16.1796875  1.494140625 15.1171875  0.896484375 13.8828125  C 0.298828125 12.6484375  0 11.3541666666667  0 10  C 0 8.64583333333333  0.298828125 7.3515625  0.896484375 6.1171875  C 1.494140625 4.8828125  2.2939453125 3.8203125  3.2958984375 2.9296875  C 4.2978515625 2.0390625  5.4931640625 1.328125  6.8818359375 0.796875  C 8.2705078125 0.265625  9.72656249999999 0  11.25 0  L 24.75 0  C 26.2734375 0  27.7294921875 0.265625  29.1181640625 0.796875  C 30.5068359375 1.328125  31.7021484375 2.0390625  32.7041015625 2.9296875  C 33.7060546875 3.8203125  34.505859375 4.8828125  35.103515625 6.1171875  Z " fill-rule="nonzero" fill="#aaaaaa" stroke="none" />
    <path d="M 19.5380859375 13.1015625  C 20.0126953125 12.1171875  20.25 11.0833333333333  20.25 10  C 20.25 8.91666666666667  20.0126953125 7.8828125  19.5380859375 6.8984375  C 19.0634765625 5.9140625  18.421875 5.0625  17.61328125 4.34375  C 16.8046875 3.625  15.8466796875 3.0546875  14.7392578125 2.6328125  C 13.6318359375 2.2109375  12.46875 2  11.25 2  C 10.03125 2  8.8681640625 2.2109375  7.7607421875 2.6328125  C 6.6533203125 3.0546875  5.6953125 3.625  4.88671875 4.34375  C 4.078125 5.0625  3.4365234375 5.9140625  2.9619140625 6.8984375  C 2.4873046875 7.8828125  2.25 8.91666666666667  2.25 10  C 2.25 11.0833333333333  2.4873046875 12.1171875  2.9619140625 13.1015625  C 3.4365234375 14.0859375  4.078125 14.9375  4.88671875 15.65625  C 5.6953125 16.375  6.6533203125 16.9453125  7.7607421875 17.3671875  C 8.8681640625 17.7890625  10.03125 18  11.25 18  C 12.46875 18  13.6318359375 17.7890625  14.7392578125 17.3671875  C 15.8466796875 16.9453125  16.8046875 16.375  17.61328125 15.65625  C 18.421875 14.9375  19.0634765625 14.0859375  19.5380859375 13.1015625  Z " stroke-width="2" stroke="#5393ee" fill="none" mask="url(#clip30)" />
    <path d="M 33.0380859375 13.1015625  C 33.5126953125 12.1171875  33.75 11.0833333333333  33.75 10  C 33.75 8.91666666666667  33.5126953125 7.8828125  33.0380859375 6.8984375  C 32.5634765625 5.9140625  31.921875 5.0625  31.11328125 4.34375  C 30.3046875 3.625  29.3466796875 3.0546875  28.2392578125 2.6328125  C 27.1318359375 2.2109375  25.96875 2  24.75 2  L 17.96484375 2  C 19.359375 2.9375  20.4638671875 4.10416666666667  21.2783203125 5.5  C 22.0927734375 6.89583333333333  22.5 8.39583333333333  22.5 10  C 22.5 11.6041666666667  22.0927734375 13.1041666666667  21.2783203125 14.5  C 20.4638671875 15.8958333333333  19.359375 17.0625  17.96484375 18  L 24.75 18  C 25.96875 18  27.1318359375 17.7890625  28.2392578125 17.3671875  C 29.3466796875 16.9453125  30.3046875 16.375  31.11328125 15.65625  C 31.921875 14.9375  32.5634765625 14.0859375  33.0380859375 13.1015625  Z " stroke-width="2" stroke="#5393ee" fill="none" mask="url(#clip30)" />
    <path d="M 35.103515625 6.1171875  C 35.701171875 7.3515625  36 8.64583333333333  36 10  C 36 11.3541666666667  35.701171875 12.6484375  35.103515625 13.8828125  C 34.505859375 15.1171875  33.7060546875 16.1796875  32.7041015625 17.0703125  C 31.7021484375 17.9609375  30.5068359375 18.671875  29.1181640625 19.203125  C 27.7294921875 19.734375  26.2734375 20  24.75 20  L 11.25 20  C 9.72656249999999 20  8.2705078125 19.734375  6.8818359375 19.203125  C 5.4931640625 18.671875  4.2978515625 17.9609375  3.2958984375 17.0703125  C 2.2939453125 16.1796875  1.494140625 15.1171875  0.896484375 13.8828125  C 0.298828125 12.6484375  0 11.3541666666667  0 10  C 0 8.64583333333333  0.298828125 7.3515625  0.896484375 6.1171875  C 1.494140625 4.8828125  2.2939453125 3.8203125  3.2958984375 2.9296875  C 4.2978515625 2.0390625  5.4931640625 1.328125  6.8818359375 0.796875  C 8.2705078125 0.265625  9.72656249999999 0  11.25 0  L 24.75 0  C 26.2734375 0  27.7294921875 0.265625  29.1181640625 0.796875  C 30.5068359375 1.328125  31.7021484375 2.0390625  32.7041015625 2.9296875  C 33.7060546875 3.8203125  34.505859375 4.8828125  35.103515625 6.1171875  Z " stroke-width="2" stroke="#5393ee" fill="none" mask="url(#clip30)" />
  </g>
</svg>