<?xml version="1.0" encoding="utf-8"?>
<svg version="1.1" xmlns:xlink="http://www.w3.org/1999/xlink" width="10px" height="14px" xmlns="http://www.w3.org/2000/svg">
  <g transform="matrix(1 0 0 1 -164 -329 )">
    <path d="M 9.8109567901235 10.1217447916666  C 9.85468106995887 10.5805121527778  9.87654320987656 11.0681423611111  9.87654320987656 11.5846354166666  C 9.87654320987656 12.2469618055555  9.71579218107001 12.8151041666666  9.39429012345681 13.2890625  C 9.07278806584367 13.7630208333334  8.68569958847741 14  8.23302469135797 14  L 1.64351851851859 14  C 1.19084362139915 14  0.803755144032891 13.7630208333334  0.482253086419746 13.2890625  C 0.160751028806601 12.8151041666666  0 12.2469618055555  0 11.5846354166666  C 0 11.0681423611111  0.0218621399176868 10.5805121527778  0.0655864197530605 10.1217447916666  C 0.109310699588491 9.66297743055554  0.190329218107024 9.201171875  0.30864197530866 8.736328125  C 0.426954732510353 8.271484375  0.577417695473173 7.87348090277783  0.760030864197518 7.54231770833337  C 0.942644032921805 7.21115451388891  1.18441358024694 6.94075520833337  1.48533950617281 6.73111979166663  C 1.78626543209879 6.521484375  2.13220164609049 6.41666666666663  2.52314814814815 6.41666666666663  C 3.19701646090533 7.19444444444446  4.0020576131688 7.58333333333337  4.93827160493828 7.58333333333337  C 5.87448559670781 7.58333333333337  6.67952674897128 7.19444444444446  7.35339506172846 6.41666666666663  C 7.74434156378607 6.41666666666663  8.09027777777777 6.521484375  8.39120370370375 6.73111979166663  C 8.69212962962968 6.94075520833337  8.93389917695475 7.21115451388891  9.11651234567904 7.54231770833337  C 9.29912551440339 7.87348090277783  9.44958847736626 8.271484375  9.56790123456796 8.736328125  C 9.68621399176959 9.201171875  9.76723251028812 9.66297743055554  9.8109567901235 10.1217447916666  Z M 7.03317901234573 1.025390625  C 7.61188271604942 1.708984375  7.90123456790127 2.53385416666663  7.90123456790127 3.5  C 7.90123456790127 4.46614583333337  7.61188271604942 5.291015625  7.03317901234573 5.974609375  C 6.45447530864197 6.658203125  5.75617283950618 7  4.93827160493828 7  C 4.12037037037044 7  3.42206790123458 6.658203125  2.84336419753083 5.974609375  C 2.26466049382719 5.291015625  1.97530864197529 4.46614583333337  1.97530864197529 3.5  C 1.97530864197529 2.53385416666663  2.26466049382719 1.708984375  2.84336419753083 1.025390625  C 3.42206790123458 0.341796875  4.12037037037044 0  4.93827160493828 0  C 5.75617283950618 0  6.45447530864197 0.341796875  7.03317901234573 1.025390625  Z " fill-rule="nonzero" fill="#006600" stroke="none" transform="matrix(1 0 0 1 164 329 )" />
  </g>
</svg>