<?xml version="1.0" encoding="utf-8"?>
<svg version="1.1" xmlns:xlink="http://www.w3.org/1999/xlink" width="16px" height="20px" xmlns="http://www.w3.org/2000/svg">
  <g transform="matrix(1 0 0 1 -37 -5 )">
    <path d="M 14.2605307572816 12.8672727929688  C 15.3181913009709 11.5164662109375  15.952787631068 9.81038970703125  15.952787631068 7.9540066796875  C 15.952787631068 3.37649017578126  12.1044557669903 -0.297235234375037  7.48179992233009 0.0189940624999707  C 3.50538438834952 0.292278632812497  0.312996116504842 3.57754953124999  0.130573922330102 7.57726437499997  C 0.0393628349514688 9.57809781249999  0.685603126213584 11.4227686523438  1.81700883495145 12.8672727929688  L 1.81506817475727 12.8672727929688  L 7.23727656310678 19.6037373828125  C 7.66228143689322 20.1327382226563  8.46377466019418 20.1307861914062  8.88489823300969 19.5978812890625  L 14.2624714174757 12.8672727929688  L 14.2605307572816 12.8672727929688  Z M 12.4285462330097 7.68462617187499  C 12.4285462330097 10.138331171875  10.4510120970874 12.129404453125  8.00965986407766 12.129404453125  C 5.57024829126214 12.129404453125  3.59077349514563 10.140283203125  3.59077349514563 7.68462617187499  C 3.59077349514563 5.23092117187502  5.56830763106796 3.239847890625  8.00965986407766 3.239847890625  C 10.4510120970874 3.239847890625  12.4285462330097 5.228969140625  12.4285462330097 7.68462617187499  Z M 11.3223691456311 7.682674140625  C 11.3243098058252 7.27469931640627  10.9943973398058 6.94285376953122  10.5868584271845 6.94285376953122  L 8.74517060194176 6.94285376953122  L 8.74517060194176 5.09037482421878  C 8.74517060194176 4.68044796874999  8.41525813592233 4.350554453125  8.00965986407766 4.350554453125  C 7.60406159223301 4.350554453125  7.27414912621358 4.68239999999998  7.27414912621358 5.09037482421878  L 7.27414912621358 7.682674140625  C 7.27414912621358 8.09260099609375  7.60406159223301 8.42249451171874  8.00965986407766 8.42249451171874  L 10.5868584271845 8.42249451171874  C 10.9943973592233 8.42249451171874  11.3223691650486 8.09064896484372  11.3223691456311 7.682674140625  Z " fill-rule="nonzero" fill="#5393ee" stroke="none" transform="matrix(1 0 0 1 37 5 )" />
  </g>
</svg>