<?xml version="1.0" encoding="utf-8"?>
<svg version="1.1" xmlns:xlink="http://www.w3.org/1999/xlink" width="20px" height="16px" xmlns="http://www.w3.org/2000/svg">
  <defs>
    <mask fill="white" id="clip520">
      <path d="M 18.5714285714286 1.33159947984395  L 18.5714285714286 5.32639791937581  C 18.9657738095238 5.32639791937581  19.3024553571429 5.45643693107932  19.5814732142857 5.71651495448635  C 19.8604910714286 5.97659297789337  20 6.29042045947118  20 6.65799739921977  C 20 7.02557433896836  19.8604910714286 7.33940182054616  19.5814732142857 7.59947984395319  C 19.3024553571429 7.85955786736021  18.9657738095238 7.98959687906372  18.5714285714286 7.98959687906372  L 18.5714285714286 11.9843953185956  C 18.5714285714286 12.3450368443866  18.4300595238095 12.6571304724751  18.1473214285714 12.9206762028609  C 17.8645833333333 13.1842219332466  17.5297619047619 13.3159947984395  17.1428571428571 13.3159947984395  C 14.0401785714286 10.9094061551799  11.0193452380952 9.59167750325097  8.08035714285714 9.3628088426528  C 7.64880952380952 9.49458170784569  7.31026785714286 9.72345036844387  7.06473214285714 10.0494148244473  C 6.81919642857143 10.3753792804508  6.70386904761905 10.7238838318162  6.71875 11.0949284785436  C 6.73363095238095 11.4659731252709  6.88244047619048 11.7867360208062  7.16517857142857 12.0572171651495  C 7.01636904761905 12.2860858257477  6.93080357142857 12.5132206328565  6.90848214285714 12.7386215864759  C 6.88616071428571 12.9640225400954  6.90848214285714 13.1651495448635  6.97544642857143 13.3420026007802  C 7.04241071428571 13.518855656697  7.16703869047619 13.7095795405288  7.34933035714286 13.9141742522757  C 7.53162202380952 14.1187689640225  7.71019345238095 14.2921543129606  7.88504464285714 14.4343302990897  C 8.05989583333333 14.5765062852189  8.28869047619048 14.7516254876463  8.57142857142857 14.9596879063719  C 8.35565476190476 15.3619419159081  7.94084821428571 15.6497615951452  7.32700892857143 15.8231469440832  C 6.71316964285714 15.9965322930212  6.08630952380952 16.036410923277  5.44642857142857 15.9427828348505  C 4.80654761904762 15.8491547464239  4.31547619047619 15.6566970091027  3.97321428571429 15.3654096228869  C 3.92113095238095 15.2058951018639  3.81138392857143 14.9024707412224  3.64397321428571 14.4551365409623  C 3.4765625 14.0078023407022  3.35751488095238 13.6801040312094  3.28683035714286 13.4720416124837  C 3.21614583333333 13.2639791937581  3.13058035714286 12.9553532726485  3.03013392857143 12.5461638491547  C 2.9296875 12.136974425661  2.87388392857143 11.7867360208062  2.86272321428571 11.4954486345904  C 2.8515625 11.2041612483745  2.86458333333333 10.8625921109666  2.90178571428571 10.4707412223667  C 2.9389880952381 10.0788903337668  3.02083333333333 9.69570871261378  3.14732142857143 9.32119635890767  L 1.78571428571429 9.32119635890767  C 1.29464285714286 9.32119635890767  0.874255952380952 9.15821413090594  0.524553571428571 8.83224967490247  C 0.17485119047619 8.506285218899  0 8.11443433029909  0 7.65669700910273  L 0 5.6592977893368  C 0 5.20156046814044  0.17485119047619 4.80970957954053  0.524553571428571 4.48374512353706  C 0.874255952380952 4.15778066753359  1.29464285714286 3.99479843953186  1.78571428571429 3.99479843953186  L 7.14285714285714 3.99479843953186  C 10.3794642857143 3.99479843953186  13.7127976190476 2.66319895968791  17.1428571428571 0  C 17.5297619047619 0  17.8645833333333 0.13177286519289  18.1473214285714 0.395318595578674  C 18.4300595238095 0.658864325964455  18.5714285714286 0.970957954052881  18.5714285714286 1.33159947984395  Z M 8.57142857142857 8.06241872561769  C 11.3764880952381 8.35370611183355  14.233630952381 9.53619419159081  17.1428571428571 11.6098829648895  L 17.1428571428571 1.6853055916775  C 14.2113095238095 3.77980060684872  11.3541666666667 4.9692241005635  8.57142857142857 5.25357607282185  L 8.57142857142857 8.06241872561769  Z " fill-rule="evenodd" />
    </mask>
  </defs>
  <g transform="matrix(1 0 0 1 -35 -7 )">
    <path d="M 18.5714285714286 1.33159947984395  L 18.5714285714286 5.32639791937581  C 18.9657738095238 5.32639791937581  19.3024553571429 5.45643693107932  19.5814732142857 5.71651495448635  C 19.8604910714286 5.97659297789337  20 6.29042045947118  20 6.65799739921977  C 20 7.02557433896836  19.8604910714286 7.33940182054616  19.5814732142857 7.59947984395319  C 19.3024553571429 7.85955786736021  18.9657738095238 7.98959687906372  18.5714285714286 7.98959687906372  L 18.5714285714286 11.9843953185956  C 18.5714285714286 12.3450368443866  18.4300595238095 12.6571304724751  18.1473214285714 12.9206762028609  C 17.8645833333333 13.1842219332466  17.5297619047619 13.3159947984395  17.1428571428571 13.3159947984395  C 14.0401785714286 10.9094061551799  11.0193452380952 9.59167750325097  8.08035714285714 9.3628088426528  C 7.64880952380952 9.49458170784569  7.31026785714286 9.72345036844387  7.06473214285714 10.0494148244473  C 6.81919642857143 10.3753792804508  6.70386904761905 10.7238838318162  6.71875 11.0949284785436  C 6.73363095238095 11.4659731252709  6.88244047619048 11.7867360208062  7.16517857142857 12.0572171651495  C 7.01636904761905 12.2860858257477  6.93080357142857 12.5132206328565  6.90848214285714 12.7386215864759  C 6.88616071428571 12.9640225400954  6.90848214285714 13.1651495448635  6.97544642857143 13.3420026007802  C 7.04241071428571 13.518855656697  7.16703869047619 13.7095795405288  7.34933035714286 13.9141742522757  C 7.53162202380952 14.1187689640225  7.71019345238095 14.2921543129606  7.88504464285714 14.4343302990897  C 8.05989583333333 14.5765062852189  8.28869047619048 14.7516254876463  8.57142857142857 14.9596879063719  C 8.35565476190476 15.3619419159081  7.94084821428571 15.6497615951452  7.32700892857143 15.8231469440832  C 6.71316964285714 15.9965322930212  6.08630952380952 16.036410923277  5.44642857142857 15.9427828348505  C 4.80654761904762 15.8491547464239  4.31547619047619 15.6566970091027  3.97321428571429 15.3654096228869  C 3.92113095238095 15.2058951018639  3.81138392857143 14.9024707412224  3.64397321428571 14.4551365409623  C 3.4765625 14.0078023407022  3.35751488095238 13.6801040312094  3.28683035714286 13.4720416124837  C 3.21614583333333 13.2639791937581  3.13058035714286 12.9553532726485  3.03013392857143 12.5461638491547  C 2.9296875 12.136974425661  2.87388392857143 11.7867360208062  2.86272321428571 11.4954486345904  C 2.8515625 11.2041612483745  2.86458333333333 10.8625921109666  2.90178571428571 10.4707412223667  C 2.9389880952381 10.0788903337668  3.02083333333333 9.69570871261378  3.14732142857143 9.32119635890767  L 1.78571428571429 9.32119635890767  C 1.29464285714286 9.32119635890767  0.874255952380952 9.15821413090594  0.524553571428571 8.83224967490247  C 0.17485119047619 8.506285218899  0 8.11443433029909  0 7.65669700910273  L 0 5.6592977893368  C 0 5.20156046814044  0.17485119047619 4.80970957954053  0.524553571428571 4.48374512353706  C 0.874255952380952 4.15778066753359  1.29464285714286 3.99479843953186  1.78571428571429 3.99479843953186  L 7.14285714285714 3.99479843953186  C 10.3794642857143 3.99479843953186  13.7127976190476 2.66319895968791  17.1428571428571 0  C 17.5297619047619 0  17.8645833333333 0.13177286519289  18.1473214285714 0.395318595578674  C 18.4300595238095 0.658864325964455  18.5714285714286 0.970957954052881  18.5714285714286 1.33159947984395  Z M 8.57142857142857 8.06241872561769  C 11.3764880952381 8.35370611183355  14.233630952381 9.53619419159081  17.1428571428571 11.6098829648895  L 17.1428571428571 1.6853055916775  C 14.2113095238095 3.77980060684872  11.3541666666667 4.9692241005635  8.57142857142857 5.25357607282185  L 8.57142857142857 8.06241872561769  Z " fill-rule="nonzero" fill="#000000" stroke="none" fill-opacity="0" transform="matrix(1 0 0 1 35 7 )" />
    <path d="M 18.5714285714286 1.33159947984395  L 18.5714285714286 5.32639791937581  C 18.9657738095238 5.32639791937581  19.3024553571429 5.45643693107932  19.5814732142857 5.71651495448635  C 19.8604910714286 5.97659297789337  20 6.29042045947118  20 6.65799739921977  C 20 7.02557433896836  19.8604910714286 7.33940182054616  19.5814732142857 7.59947984395319  C 19.3024553571429 7.85955786736021  18.9657738095238 7.98959687906372  18.5714285714286 7.98959687906372  L 18.5714285714286 11.9843953185956  C 18.5714285714286 12.3450368443866  18.4300595238095 12.6571304724751  18.1473214285714 12.9206762028609  C 17.8645833333333 13.1842219332466  17.5297619047619 13.3159947984395  17.1428571428571 13.3159947984395  C 14.0401785714286 10.9094061551799  11.0193452380952 9.59167750325097  8.08035714285714 9.3628088426528  C 7.64880952380952 9.49458170784569  7.31026785714286 9.72345036844387  7.06473214285714 10.0494148244473  C 6.81919642857143 10.3753792804508  6.70386904761905 10.7238838318162  6.71875 11.0949284785436  C 6.73363095238095 11.4659731252709  6.88244047619048 11.7867360208062  7.16517857142857 12.0572171651495  C 7.01636904761905 12.2860858257477  6.93080357142857 12.5132206328565  6.90848214285714 12.7386215864759  C 6.88616071428571 12.9640225400954  6.90848214285714 13.1651495448635  6.97544642857143 13.3420026007802  C 7.04241071428571 13.518855656697  7.16703869047619 13.7095795405288  7.34933035714286 13.9141742522757  C 7.53162202380952 14.1187689640225  7.71019345238095 14.2921543129606  7.88504464285714 14.4343302990897  C 8.05989583333333 14.5765062852189  8.28869047619048 14.7516254876463  8.57142857142857 14.9596879063719  C 8.35565476190476 15.3619419159081  7.94084821428571 15.6497615951452  7.32700892857143 15.8231469440832  C 6.71316964285714 15.9965322930212  6.08630952380952 16.036410923277  5.44642857142857 15.9427828348505  C 4.80654761904762 15.8491547464239  4.31547619047619 15.6566970091027  3.97321428571429 15.3654096228869  C 3.92113095238095 15.2058951018639  3.81138392857143 14.9024707412224  3.64397321428571 14.4551365409623  C 3.4765625 14.0078023407022  3.35751488095238 13.6801040312094  3.28683035714286 13.4720416124837  C 3.21614583333333 13.2639791937581  3.13058035714286 12.9553532726485  3.03013392857143 12.5461638491547  C 2.9296875 12.136974425661  2.87388392857143 11.7867360208062  2.86272321428571 11.4954486345904  C 2.8515625 11.2041612483745  2.86458333333333 10.8625921109666  2.90178571428571 10.4707412223667  C 2.9389880952381 10.0788903337668  3.02083333333333 9.69570871261378  3.14732142857143 9.32119635890767  L 1.78571428571429 9.32119635890767  C 1.29464285714286 9.32119635890767  0.874255952380952 9.15821413090594  0.524553571428571 8.83224967490247  C 0.17485119047619 8.506285218899  0 8.11443433029909  0 7.65669700910273  L 0 5.6592977893368  C 0 5.20156046814044  0.17485119047619 4.80970957954053  0.524553571428571 4.48374512353706  C 0.874255952380952 4.15778066753359  1.29464285714286 3.99479843953186  1.78571428571429 3.99479843953186  L 7.14285714285714 3.99479843953186  C 10.3794642857143 3.99479843953186  13.7127976190476 2.66319895968791  17.1428571428571 0  C 17.5297619047619 0  17.8645833333333 0.13177286519289  18.1473214285714 0.395318595578674  C 18.4300595238095 0.658864325964455  18.5714285714286 0.970957954052881  18.5714285714286 1.33159947984395  Z " stroke-width="2" stroke="#555555" fill="none" transform="matrix(1 0 0 1 35 7 )" mask="url(#clip520)" />
    <path d="M 8.57142857142857 8.06241872561769  C 11.3764880952381 8.35370611183355  14.233630952381 9.53619419159081  17.1428571428571 11.6098829648895  L 17.1428571428571 1.6853055916775  C 14.2113095238095 3.77980060684872  11.3541666666667 4.9692241005635  8.57142857142857 5.25357607282185  L 8.57142857142857 8.06241872561769  Z " stroke-width="2" stroke="#555555" fill="none" transform="matrix(1 0 0 1 35 7 )" mask="url(#clip520)" />
  </g>
</svg>