<?xml version="1.0" encoding="utf-8"?>
<svg version="1.1" xmlns:xlink="http://www.w3.org/1999/xlink" width="16px" height="20px" xmlns="http://www.w3.org/2000/svg">
  <g transform="matrix(1 0 0 1 -37 -5 )">
    <path d="M 13.7904761904762 4.75409836065575  C 13.6380952380953 4.49180327868853  13.4857142857143 4.22950819672132  13.4857142857143 3.96721311475408  C 13.4857142857143 3.70491803278688  13.6380952380953 3.44262295081967  13.7904761904762 3.18032786885247  C 14.0952380952381 3.04918032786885  14.4 2.91803278688524  14.7047619047619 2.91803278688524  C 15.0095238095238 2.91803278688524  15.3142857142857 3.04918032786885  15.6190476190476 3.18032786885247  C 15.9238095238095 3.31147540983607  15.9238095238095 3.70491803278688  15.9238095238095 3.96721311475408  C 15.9238095238095 4.22950819672132  15.7714285714285 4.49180327868853  15.6190476190476 4.75409836065575  C 15.3142857142857 4.88524590163937  15.0095238095238 5.01639344262296  14.7047619047619 5.01639344262296  C 14.4 5.01639344262296  14.0952380952381 4.88524590163937  13.7904761904762 4.75409836065575  Z M 10.5904761904762 3.04918032786885  C 10.2857142857143 2.78688524590162  10.1333333333334 2.52459016393444  10.1333333333334 2.13114754098359  C 10.1333333333334 1.86885245901639  10.2857142857143 1.47540983606554  10.5904761904762 1.21311475409837  C 10.8952380952381 0.950819672131167  11.2 0.81967213114753  11.6571428571428 0.81967213114753  C 12.1142857142857 0.81967213114753  12.4190476190476 0.950819672131167  12.7238095238095 1.21311475409837  C 13.0285714285714 1.47540983606554  13.1809523809524 1.73770491803278  13.1809523809524 2.13114754098359  C 13.1809523809524 2.52459016393444  13.0285714285714 2.78688524590162  12.7238095238095 3.04918032786885  C 12.4190476190476 3.31147540983607  12.1142857142857 3.44262295081967  11.6571428571428 3.44262295081967  C 11.2 3.44262295081967  10.8952380952381 3.31147540983607  10.5904761904762 3.04918032786885  Z M 6.1714285714286 2.65573770491804  C 5.86666666666665 2.39344262295083  5.71428571428571 2.00000000000001  5.71428571428571 1.60655737704916  C 5.71428571428571 1.21311475409837  5.86666666666665 0.81967213114753  6.1714285714286 0.557377049180325  C 6.47619047619047 0.295081967213119  6.93333333333332 0.163934426229499  7.39047619047617 0.163934426229499  C 7.84761904761906 0.163934426229499  8.30476190476191 0.295081967213119  8.60952380952383 0.557377049180325  C 8.9142857142857 0.81967213114753  9.06666666666668 1.21311475409837  9.06666666666668 1.60655737704916  C 9.06666666666668 2.00000000000001  8.9142857142857 2.39344262295083  8.60952380952383 2.65573770491804  C 8.30476190476191 2.91803278688524  7.84761904761906 3.04918032786885  7.39047619047617 3.04918032786885  C 6.93333333333332 3.04918032786885  6.47619047619047 2.91803278688524  6.1714285714286 2.65573770491804  Z M 0.685714285714276 3.18032786885247  C 0.228571428571461 2.78688524590162  0.0761904761904527 2.39344262295083  0.0761904761904527 1.86885245901639  C 0.0761904761904527 1.34426229508196  0.380952380952364 0.950819672131167  0.685714285714276 0.557377049180325  C 1.14285714285713 0.163934426229499  1.75238095238095 0.0327868852458964  2.2095238095238 0.0327868852458964  C 2.8190476190476 0.0327868852458964  3.42857142857142 0.295081967213119  3.73333333333333 0.557377049180325  C 4.19047619047618 0.950819672131167  4.34285714285716 1.34426229508196  4.34285714285716 1.86885245901639  C 4.34285714285716 2.39344262295083  4.03809523809524 2.78688524590162  3.73333333333333 3.18032786885247  C 3.27619047619048 3.57377049180329  2.66666666666669 3.70491803278688  2.2095238095238 3.70491803278688  C 1.60000000000001 3.70491803278688  0.99047619047619 3.44262295081967  0.685714285714276 3.18032786885247  Z M 15.0095238095238 8.03278688524591  C 15.0095238095238 6.0655737704918  13.0285714285714 4.22950819672132  10.4380952380952 4.22950819672132  L 4.95238095238094 4.22950819672132  L 4.80000000000001 4.22950819672132  L 4.49523809523809 4.22950819672132  C 2.51428571428572 4.36065573770493  0.99047619047619 5.67213114754099  0.99047619047619 7.37704918032788  C 0.99047619047619 8.55737704918034  1.75238095238095 9.47540983606559  2.8190476190476 10.1311475409836  C 2.8190476190476 10.1311475409836  4.95238095238094 11.0491803278689  2.8190476190476 15.6393442622951  C 2.66666666666669 16.0327868852459  2.51428571428572 16.4262295081967  2.51428571428572 16.8196721311476  C 2.51428571428572 18.5245901639344  4.19047619047618 19.9672131147541  6.32380952380954 19.9672131147541  C 7.23809523809524 19.9672131147541  8.15238095238094 19.7049180327869  8.76190476190476 19.1803278688525  C 12.5714285714286 16.5573770491803  15.0095238095238 12.6229508196722  15.0095238095238 8.16393442622951  L 15.0095238095238 8.03278688524591  Z " fill-rule="nonzero" fill="#5393ee" stroke="none" transform="matrix(1 0 0 1 37 5 )" />
  </g>
</svg>