<?xml version="1.0" encoding="utf-8"?>
<svg version="1.1" xmlns:xlink="http://www.w3.org/1999/xlink" width="40px" height="40px" xmlns="http://www.w3.org/2000/svg">
  <g transform="matrix(1 0 0 1 -10 -10 )">
    <path d="M 30 10  C 41.2 10  50 18.8  50 30  C 50 41.2  41.2 50  30 50  C 18.8 50  10 41.2  10 30  C 10 18.8  18.8 10  30 10  Z " fill-rule="nonzero" fill="#ffffff" stroke="none" fill-opacity="0" />
    <path d="M 30 10.5  C 40.92 10.5  49.5 19.08  49.5 30  C 49.5 40.92  40.92 49.5  30 49.5  C 19.08 49.5  10.5 40.92  10.5 30  C 10.5 19.08  19.08 10.5  30 10.5  Z " stroke-width="1" stroke="#ff0000" fill="none" />
  </g>
</svg>