<?xml version="1.0" encoding="utf-8"?>
<svg version="1.1" xmlns:xlink="http://www.w3.org/1999/xlink" width="20px" height="20px" xmlns="http://www.w3.org/2000/svg">
  <g transform="matrix(1 0 0 1 -20 -20 )">
    <path d="M 30 20  C 35.6 20  40 24.4  40 30  C 40 35.6  35.6 40  30 40  C 24.4 40  20 35.6  20 30  C 20 24.4  24.4 20  30 20  Z " fill-rule="nonzero" fill="#ffffff" stroke="none" fill-opacity="0" />
    <path d="M 30 20.5  C 35.32 20.5  39.5 24.68  39.5 30  C 39.5 35.32  35.32 39.5  30 39.5  C 24.68 39.5  20.5 35.32  20.5 30  C 20.5 24.68  24.68 20.5  30 20.5  Z " stroke-width="1" stroke="#ff0000" fill="none" />
  </g>
</svg>